<svg xmlns="http://www.w3.org/2000/svg" xmlns:xlink="http://www.w3.org/1999/xlink" width="500" zoomAndPan="magnify" viewBox="0 0 375 374.999991" height="500" preserveAspectRatio="xMidYMid meet" version="1.0"><defs><g/><clipPath id="37e1754cd0"><path d="M 95 70 L 281 70 L 281 231 L 95 231 Z M 95 70 " clip-rule="nonzero"/></clipPath><clipPath id="745f72aa07"><path d="M 133.460938 -32.449219 L 373.1875 104.324219 L 241.617188 334.929688 L 1.890625 198.15625 Z M 133.460938 -32.449219 " clip-rule="nonzero"/></clipPath><clipPath id="925132ebb7"><path d="M 133.460938 -32.449219 L 373.1875 104.324219 L 241.617188 334.929688 L 1.890625 198.15625 Z M 133.460938 -32.449219 " clip-rule="nonzero"/></clipPath><clipPath id="1f4b0ea655"><path d="M 74 35 L 320 35 L 320 200 L 74 200 Z M 74 35 " clip-rule="nonzero"/></clipPath><clipPath id="593a5fe8e6"><path d="M 133.460938 -32.449219 L 373.1875 104.324219 L 241.617188 334.929688 L 1.890625 198.15625 Z M 133.460938 -32.449219 " clip-rule="nonzero"/></clipPath><clipPath id="567e675069"><path d="M 133.460938 -32.449219 L 373.1875 104.324219 L 241.617188 334.929688 L 1.890625 198.15625 Z M 133.460938 -32.449219 " clip-rule="nonzero"/></clipPath><clipPath id="b7d44eb9c5"><path d="M 55 102 L 301 102 L 301 267 L 55 267 Z M 55 102 " clip-rule="nonzero"/></clipPath><clipPath id="b99d9d5a2a"><path d="M 133.460938 -32.449219 L 373.1875 104.324219 L 241.617188 334.929688 L 1.890625 198.15625 Z M 133.460938 -32.449219 " clip-rule="nonzero"/></clipPath><clipPath id="3d708b7cc2"><path d="M 133.460938 -32.449219 L 373.1875 104.324219 L 241.617188 334.929688 L 1.890625 198.15625 Z M 133.460938 -32.449219 " clip-rule="nonzero"/></clipPath></defs><g clip-path="url(#37e1754cd0)"><g clip-path="url(#745f72aa07)"><g clip-path="url(#925132ebb7)"><path fill="#ffffff" d="M 132.007812 212.671875 L 118.980469 190.5625 L 98.824219 156.121094 L 95.765625 150.832031 L 115.878906 115.582031 L 128.160156 136.925781 L 120.320312 150.671875 L 137.421875 179.828125 L 144.132812 191.417969 Z M 227.785156 102.164062 L 221.542969 91.519531 L 187.738281 91.632812 L 187.667969 91.761719 L 166.078125 91.757812 L 241.527344 217.632812 L 234.558594 229.847656 L 228.378906 230.035156 L 188.339844 230.136719 L 148.433594 230.308594 L 142.324219 230.367188 L 139.140625 225.007812 L 136.085938 219.722656 L 148.210938 198.46875 L 154.449219 209.113281 L 188.328125 208.875 L 209.789062 208.804688 L 134.976562 82.109375 L 141.511719 70.65625 L 147.617188 70.597656 L 187.523438 70.425781 L 227.5625 70.328125 L 233.667969 70.269531 L 236.726562 75.554688 L 239.910156 80.914062 Z M 277.179688 155.144531 L 263.382812 179.324219 L 249.9375 160.015625 L 255.675781 149.964844 L 238.574219 120.808594 L 231.859375 109.214844 L 244.058594 87.835938 L 256.886719 109.996094 L 277.171875 144.515625 L 280.226562 149.800781 L 277.179688 155.144531 " fill-opacity="1" fill-rule="nonzero"/></g></g></g><g clip-path="url(#1f4b0ea655)"><g clip-path="url(#593a5fe8e6)"><g clip-path="url(#567e675069)"><path fill="#ffffff" d="M 133.886719 57.703125 L 187.445312 57.558594 L 228.734375 57.332031 L 193.082031 119.820312 L 205.785156 140.726562 L 247.316406 67.929688 L 268.003906 103.519531 L 268.132812 103.59375 L 295.132812 149.699219 L 272.914062 188.644531 L 291.367188 199.171875 L 319.613281 149.664062 L 316.554688 144.378906 L 286.441406 92.785156 L 256.332031 41.195312 L 253.273438 35.90625 L 247.039062 35.894531 L 187.300781 36.222656 L 187.429688 36.296875 L 127.691406 36.625 L 121.460938 36.613281 L 102.726562 69.445312 L 102.472656 69.300781 L 74.125 75.226562 L 111.667969 96.644531 L 133.886719 57.703125 " fill-opacity="1" fill-rule="nonzero"/></g></g></g><g clip-path="url(#b7d44eb9c5)"><g clip-path="url(#b99d9d5a2a)"><g clip-path="url(#3d708b7cc2)"><path fill="#ffffff" d="M 263.328125 205.441406 L 241.109375 244.386719 L 187.605469 244.730469 L 187.480469 244.660156 L 146.316406 244.960938 L 182.691406 181.199219 L 170.210938 159.90625 L 127.734375 234.359375 L 106.917969 198.695312 L 79.863281 152.386719 L 102.082031 113.445312 L 83.628906 102.917969 L 55.3125 152.550781 L 58.496094 157.910156 L 88.609375 209.503906 L 88.480469 209.429688 L 118.664062 260.898438 L 121.851562 266.253906 L 127.957031 266.199219 L 187.621094 265.992188 L 247.359375 265.664062 L 253.464844 265.605469 L 272.195312 232.769531 L 272.449219 232.914062 L 300.871094 226.863281 L 263.328125 205.441406 " fill-opacity="1" fill-rule="nonzero"/></g></g></g><g fill="#ffffff" fill-opacity="1"><g transform="translate(83.083936, 310.913442)"><g><path d="M 33.359375 -30.890625 L 19.984375 0 L 12.921875 0 L -0.390625 -30.890625 L 7.328125 -30.890625 L 16.71875 -8.828125 L 26.25 -30.890625 Z M 33.359375 -30.890625 "/></g></g></g><g fill="#ffffff" fill-opacity="1"><g transform="translate(115.996818, 310.913442)"><g><path d="M 24 -6.625 L 9.65625 -6.625 L 6.921875 0 L -0.390625 0 L 13.375 -30.890625 L 20.4375 -30.890625 L 34.234375 0 L 26.734375 0 Z M 21.75 -12.046875 L 16.859375 -23.875 L 11.953125 -12.046875 Z M 21.75 -12.046875 "/></g></g></g><g fill="#ffffff" fill-opacity="1"><g transform="translate(149.79208, 310.913442)"><g><path d="M 18.4375 0.53125 C 15.289062 0.53125 12.445312 -0.148438 9.90625 -1.515625 C 7.363281 -2.890625 5.363281 -4.789062 3.90625 -7.21875 C 2.445312 -9.644531 1.71875 -12.382812 1.71875 -15.4375 C 1.71875 -18.5 2.445312 -21.242188 3.90625 -23.671875 C 5.363281 -26.097656 7.363281 -27.992188 9.90625 -29.359375 C 12.445312 -30.734375 15.304688 -31.421875 18.484375 -31.421875 C 21.160156 -31.421875 23.578125 -30.945312 25.734375 -30 C 27.898438 -29.0625 29.722656 -27.710938 31.203125 -25.953125 L 26.609375 -21.703125 C 24.515625 -24.117188 21.925781 -25.328125 18.84375 -25.328125 C 16.925781 -25.328125 15.21875 -24.90625 13.71875 -24.0625 C 12.21875 -23.226562 11.046875 -22.0625 10.203125 -20.5625 C 9.367188 -19.0625 8.953125 -17.351562 8.953125 -15.4375 C 8.953125 -13.53125 9.367188 -11.828125 10.203125 -10.328125 C 11.046875 -8.828125 12.21875 -7.65625 13.71875 -6.8125 C 15.21875 -5.976562 16.925781 -5.5625 18.84375 -5.5625 C 21.925781 -5.5625 24.515625 -6.78125 26.609375 -9.21875 L 31.203125 -4.984375 C 29.722656 -3.191406 27.894531 -1.820312 25.71875 -0.875 C 23.539062 0.0625 21.113281 0.53125 18.4375 0.53125 Z M 18.4375 0.53125 "/></g></g></g><g fill="#ffffff" fill-opacity="1"><g transform="translate(182.131414, 310.913442)"><g><path d="M 24 -6.625 L 9.65625 -6.625 L 6.921875 0 L -0.390625 0 L 13.375 -30.890625 L 20.4375 -30.890625 L 34.234375 0 L 26.734375 0 Z M 21.75 -12.046875 L 16.859375 -23.875 L 11.953125 -12.046875 Z M 21.75 -12.046875 "/></g></g></g><g fill="#ffffff" fill-opacity="1"><g transform="translate(215.926676, 310.913442)"><g><path d="M 31.984375 -30.890625 L 31.984375 0 L 26.125 0 L 10.71875 -18.75 L 10.71875 0 L 3.65625 0 L 3.65625 -30.890625 L 9.578125 -30.890625 L 24.9375 -12.140625 L 24.9375 -30.890625 Z M 31.984375 -30.890625 "/></g></g></g><g fill="#ffffff" fill-opacity="1"><g transform="translate(251.574931, 310.913442)"><g><path d="M 18.4375 0.53125 C 15.289062 0.53125 12.445312 -0.148438 9.90625 -1.515625 C 7.363281 -2.890625 5.363281 -4.789062 3.90625 -7.21875 C 2.445312 -9.644531 1.71875 -12.382812 1.71875 -15.4375 C 1.71875 -18.5 2.445312 -21.242188 3.90625 -23.671875 C 5.363281 -26.097656 7.363281 -27.992188 9.90625 -29.359375 C 12.445312 -30.734375 15.304688 -31.421875 18.484375 -31.421875 C 21.160156 -31.421875 23.578125 -30.945312 25.734375 -30 C 27.898438 -29.0625 29.722656 -27.710938 31.203125 -25.953125 L 26.609375 -21.703125 C 24.515625 -24.117188 21.925781 -25.328125 18.84375 -25.328125 C 16.925781 -25.328125 15.21875 -24.90625 13.71875 -24.0625 C 12.21875 -23.226562 11.046875 -22.0625 10.203125 -20.5625 C 9.367188 -19.0625 8.953125 -17.351562 8.953125 -15.4375 C 8.953125 -13.53125 9.367188 -11.828125 10.203125 -10.328125 C 11.046875 -8.828125 12.21875 -7.65625 13.71875 -6.8125 C 15.21875 -5.976562 16.925781 -5.5625 18.84375 -5.5625 C 21.925781 -5.5625 24.515625 -6.78125 26.609375 -9.21875 L 31.203125 -4.984375 C 29.722656 -3.191406 27.894531 -1.820312 25.71875 -0.875 C 23.539062 0.0625 21.113281 0.53125 18.4375 0.53125 Z M 18.4375 0.53125 "/></g></g></g><g fill="#ffffff" fill-opacity="1"><g transform="translate(283.914266, 310.913442)"><g><path d="M 18.484375 -10.9375 L 18.484375 0 L 11.34375 0 L 11.34375 -11.03125 L -0.625 -30.890625 L 6.96875 -30.890625 L 15.21875 -17.171875 L 23.46875 -30.890625 L 30.484375 -30.890625 Z M 18.484375 -10.9375 "/></g></g></g></svg>