<svg xmlns="http://www.w3.org/2000/svg" xmlns:xlink="http://www.w3.org/1999/xlink" width="500" zoomAndPan="magnify" viewBox="0 0 375 374.999991" height="500" preserveAspectRatio="xMidYMid meet" version="1.0"><defs><clipPath id="b8e9874875"><path d="M 68 82 L 308 82 L 308 291 L 68 291 Z M 68 82 " clip-rule="nonzero"/></clipPath><clipPath id="85a1e94052"><path d="M 117.371094 -50.640625 L 428.105469 126.644531 L 257.507812 425.652344 L -53.222656 248.367188 Z M 117.371094 -50.640625 " clip-rule="nonzero"/></clipPath><clipPath id="536ff622ed"><path d="M 117.371094 -50.640625 L 428.105469 126.644531 L 257.507812 425.652344 L -53.222656 248.367188 Z M 117.371094 -50.640625 " clip-rule="nonzero"/></clipPath><clipPath id="58258abb49"><path d="M 40 38 L 359 38 L 359 250 L 40 250 Z M 40 38 " clip-rule="nonzero"/></clipPath><clipPath id="0ea0e1d6c4"><path d="M 117.371094 -50.640625 L 428.105469 126.644531 L 257.507812 425.652344 L -53.222656 248.367188 Z M 117.371094 -50.640625 " clip-rule="nonzero"/></clipPath><clipPath id="0b41a45acc"><path d="M 117.371094 -50.640625 L 428.105469 126.644531 L 257.507812 425.652344 L -53.222656 248.367188 Z M 117.371094 -50.640625 " clip-rule="nonzero"/></clipPath><clipPath id="2e5e38c372"><path d="M 15 125 L 335 125 L 335 338 L 15 338 Z M 15 125 " clip-rule="nonzero"/></clipPath><clipPath id="0df193beff"><path d="M 117.371094 -50.640625 L 428.105469 126.644531 L 257.507812 425.652344 L -53.222656 248.367188 Z M 117.371094 -50.640625 " clip-rule="nonzero"/></clipPath><clipPath id="87a49ada06"><path d="M 117.371094 -50.640625 L 428.105469 126.644531 L 257.507812 425.652344 L -53.222656 248.367188 Z M 117.371094 -50.640625 " clip-rule="nonzero"/></clipPath></defs><g clip-path="url(#b8e9874875)"><g clip-path="url(#85a1e94052)"><g clip-path="url(#536ff622ed)"><path fill="#ffffff" d="M 115.484375 267.472656 L 98.578125 238.777344 L 72.417969 194.078125 L 68.449219 187.21875 L 94.550781 141.46875 L 110.492188 169.171875 L 100.3125 187.007812 L 122.507812 224.847656 L 131.222656 239.890625 Z M 239.78125 124.058594 L 231.679688 110.242188 L 187.8125 110.390625 L 187.714844 110.558594 L 159.699219 110.550781 L 257.613281 273.910156 L 248.570312 289.761719 L 240.550781 290.007812 L 188.589844 290.136719 L 136.800781 290.359375 L 128.875 290.4375 L 124.742188 283.480469 L 120.773438 276.621094 L 136.511719 249.035156 L 144.609375 262.855469 L 188.574219 262.542969 L 216.425781 262.453125 L 119.335938 98.03125 L 127.816406 83.164062 L 135.742188 83.089844 L 187.53125 82.867188 L 239.492188 82.738281 L 247.417969 82.664062 L 251.386719 89.523438 L 255.515625 96.476562 Z M 303.882812 192.8125 L 285.980469 224.195312 L 268.53125 199.136719 L 275.976562 186.089844 L 253.78125 148.25 L 245.070312 133.207031 L 260.902344 105.460938 L 277.546875 134.222656 L 303.875 179.019531 L 307.839844 185.878906 L 303.882812 192.8125 " fill-opacity="1" fill-rule="nonzero"/></g></g></g><g clip-path="url(#58258abb49)"><g clip-path="url(#0ea0e1d6c4)"><g clip-path="url(#0b41a45acc)"><path fill="#ffffff" d="M 117.921875 66.355469 L 187.425781 66.167969 L 241.015625 65.871094 L 194.746094 146.96875 L 211.226562 174.101562 L 265.128906 79.628906 L 291.976562 125.816406 L 292.140625 125.910156 L 327.183594 185.746094 L 298.347656 236.289062 L 322.296875 249.949219 L 358.953125 185.703125 L 354.984375 178.84375 L 315.902344 111.886719 L 276.828125 44.929688 L 272.859375 38.066406 L 264.769531 38.050781 L 187.242188 38.480469 L 187.410156 38.574219 L 109.882812 39.003906 L 101.796875 38.984375 L 77.484375 81.59375 L 77.152344 81.40625 L 40.363281 89.097656 L 89.085938 116.894531 L 117.921875 66.355469 " fill-opacity="1" fill-rule="nonzero"/></g></g></g><g clip-path="url(#2e5e38c372)"><g clip-path="url(#0df193beff)"><g clip-path="url(#87a49ada06)"><path fill="#ffffff" d="M 285.910156 258.089844 L 257.074219 308.628906 L 187.636719 309.078125 L 187.472656 308.984375 L 134.050781 309.371094 L 181.261719 226.625 L 165.0625 198.992188 L 109.9375 295.613281 L 82.925781 249.332031 L 47.8125 189.234375 L 76.648438 138.695312 L 52.699219 125.035156 L 15.949219 189.449219 L 20.082031 196.402344 L 59.164062 263.359375 L 58.996094 263.261719 L 98.167969 330.054688 L 102.300781 337.007812 L 110.226562 336.9375 L 187.65625 336.667969 L 265.183594 336.242188 L 273.105469 336.167969 L 297.417969 293.554688 L 297.746094 293.742188 L 334.632812 285.886719 L 285.910156 258.089844 " fill-opacity="1" fill-rule="nonzero"/></g></g></g></svg>